<svg width="64" height="64" viewBox="0 0 64 64" fill="none" xmlns="http://www.w3.org/2000/svg">
  <defs>
    <filter id="glow" x="-20%" y="-20%" width="140%" height="140%" color-interpolation-filters="sRGB">
      <feGaussianBlur stdDeviation="1.4" result="blur" />
      <feColorMatrix in="blur" type="matrix" values="0 0 0 0 0.74  0 0 0 0 1  0 0 0 0 0.36  0 0 0 0.85 0" result="greenGlow" />
      <feMerge>
        <feMergeNode in="greenGlow" />
      </feMerge>
    </filter>
  </defs>

  <path
    d="M16 8H48C49.1046 8 50 8.89543 50 10V18C50 19.1046 49.1046 20 48 20H28V28H46C47.1046 28 48 28.8954 48 30V38C48 39.1046 47.1046 40 46 40H28V54C28 55.1046 27.1046 56 26 56H16C14.8954 56 14 55.1046 14 54V10C14 8.89543 14.8954 8 16 8Z"
    fill="#0E0E0E"
    filter="url(#glow)"
  />
  <path
    d="M16 8H48C49.1046 8 50 8.89543 50 10V18C50 19.1046 49.1046 20 48 20H28V28H46C47.1046 28 48 28.8954 48 30V38C48 39.1046 47.1046 40 46 40H28V54C28 55.1046 27.1046 56 26 56H16C14.8954 56 14 55.1046 14 54V10C14 8.89543 14.8954 8 16 8Z"
    fill="#0E0E0E"
    stroke="#BDFF5D"
    stroke-width="2"
    stroke-linejoin="round"
  />
</svg>
